<svg width="192" height="192" viewBox="0 0 192 192" fill="none" xmlns="http://www.w3.org/2000/svg">
  <rect width="192" height="192" rx="24" fill="url(#gradient)"/>
  <path d="M48 64L144 64C150.627 64 156 69.373 156 76L156 116C156 122.627 150.627 128 144 128L48 128C41.373 128 36 122.627 36 116L36 76C36 69.373 41.373 64 48 64Z" fill="white" fill-opacity="0.9"/>
  <path d="M60 80L84 80C87.314 80 90 82.686 90 86L90 106C90 109.314 87.314 112 84 112L60 112C56.686 112 54 109.314 54 106L54 86C54 82.686 56.686 80 60 80Z" fill="url(#gradient)"/>
  <path d="M108 80L132 80C135.314 80 138 82.686 138 86L138 106C138 109.314 135.314 112 132 112L108 112C104.686 112 102 109.314 102 106L102 86C102 82.686 104.686 80 108 80Z" fill="url(#gradient)"/>
  <path d="M72 88L78 88C79.105 88 80 88.895 80 90L80 102C80 103.105 79.105 104 78 104L72 104C70.895 104 70 103.105 70 102L70 90C70 88.895 70.895 88 72 88Z" fill="white"/>
  <path d="M120 88L126 88C127.105 88 128 88.895 128 90L128 102C128 103.105 127.105 104 126 104L120 104C118.895 104 118 103.105 118 102L118 90C118 88.895 118.895 88 120 88Z" fill="white"/>
  <path d="M96 136L96 144C96 145.105 95.105 146 94 146L90 146C88.895 146 88 145.105 88 144L88 136C88 134.895 88.895 134 90 134L94 134C95.105 134 96 134.895 96 136Z" fill="white" fill-opacity="0.8"/>
  <path d="M104 136L104 144C104 145.105 104.895 146 106 146L110 146C111.105 146 112 145.105 112 144L112 136C112 134.895 111.105 134 110 134L106 134C104.895 134 104 134.895 104 136Z" fill="white" fill-opacity="0.8"/>
  <defs>
    <linearGradient id="gradient" x1="0%" y1="0%" x2="100%" y2="100%">
      <stop offset="0%" style="stop-color:#3b82f6;stop-opacity:1" />
      <stop offset="100%" style="stop-color:#8b5cf6;stop-opacity:1" />
    </linearGradient>
  </defs>
</svg>

